HIERARCHY
ROOT Hips
{
	OFFSET 0.000000 0.000000 0.000000
	CHANNELS 6 Xposition Yposition Zposition Zrotation Xrotation Yrotation
	JOINT RightUpLeg
	{
		OFFSET -10.032200 0.000000 0.000000
		CHANNELS 3 Zrotation Xrotation Yrotation
		JOINT RightLeg
		{
			OFFSET 0.000000 -40.977000 0.000000
			CHANNELS 3 Zrotation Xrotation Yrotation
			JOINT RightFoot
			{
				OFFSET 0.000000 -38.933200 0.000000
				CHANNELS 3 Zrotation Xrotation Yrotation
				JOINT RightToe
				{
					OFFSET 0.000000 -1.977400 9.184000
					CHANNELS 3 Zrotation Xrotation Yrotation
					JOINT RightToeEnd
					{
						OFFSET 0.000000 2.335600 6.099100
						CHANNELS 3 Zrotation Xrotation Yrotation
						End Site
						{
						    OFFSET 0.000000 1.788000 4.669400
						}
					}
				}
			}
		}
	}
	JOINT LeftUpLeg
	{
		OFFSET 10.032200 0.000000 0.000000
		CHANNELS 3 Zrotation Xrotation Yrotation
		JOINT LeftLeg
		{
			OFFSET 0.000000 -40.977000 0.000000
			CHANNELS 3 Zrotation Xrotation Yrotation
			JOINT LeftFoot
			{
				OFFSET 0.000000 -38.933200 0.000000
				CHANNELS 3 Zrotation Xrotation Yrotation
				JOINT LeftToe
				{
					OFFSET 0.000000 -1.977400 9.184000
					CHANNELS 3 Zrotation Xrotation Yrotation
					JOINT LeftToeEnd
					{
						OFFSET 0.000000 2.335600 6.099100
						CHANNELS 3 Zrotation Xrotation Yrotation
						End Site
						{
						    OFFSET 0.000000 1.788000 4.669400
						}
					}
				}
			}
		}
	}
	JOINT Spine
	{
		OFFSET 0.000000 16.960900 0.000000
		CHANNELS 3 Zrotation Xrotation Yrotation
		JOINT Spine1
		{
			OFFSET 0.000000 13.413900 0.000000
			CHANNELS 3 Zrotation Xrotation Yrotation
			JOINT Spine2
			{
				OFFSET 0.000000 10.384400 0.000000
				CHANNELS 3 Zrotation Xrotation Yrotation
				JOINT LeftShoulder
				{
					OFFSET 2.000000 10.384400 0.000000
					CHANNELS 3 Zrotation Xrotation Yrotation
					JOINT LeftArm
					{
						OFFSET 15.649100 0.000000 0.000000
						CHANNELS 3 Zrotation Xrotation Yrotation
						JOINT LeftForeArm
						{
							OFFSET 0.000000 -26.641600 0.000000
							CHANNELS 3 Zrotation Xrotation Yrotation
							JOINT LeftHand
							{
								OFFSET 0.000000 -23.740600 0.000000
								CHANNELS 3 Zrotation Xrotation Yrotation
								JOINT LeftFinger0
								{
									OFFSET 0.000000 -7.620900 0.000000
									CHANNELS 3 Zrotation Xrotation Yrotation
									End Site
									{
									    OFFSET 0.000000 -5.000000 0.000000
									}
								}
							}
						}
					}
				}
				JOINT RightShoulder
				{
					OFFSET -2.000000 10.384400 0.000000
					CHANNELS 3 Zrotation Xrotation Yrotation
					JOINT RightArm
					{
						OFFSET -15.649100 0.000000 0.000000
						CHANNELS 3 Zrotation Xrotation Yrotation
						JOINT RightForeArm
						{
							OFFSET 0.000000 -26.641600 0.000000
							CHANNELS 3 Zrotation Xrotation Yrotation
							JOINT RightHand
							{
								OFFSET 0.000000 -23.740600 0.000000
								CHANNELS 3 Zrotation Xrotation Yrotation
								JOINT RightFinger0
								{
									OFFSET 0.000000 -7.620900 0.000000
									CHANNELS 3 Zrotation Xrotation Yrotation
									End Site
									{
									    OFFSET 0.000000 -5.000000 0.000000
									}
								}
							}
						}
					}
				}
				JOINT Neck
				{
					OFFSET 0.000000 10.384400 0.000000
					CHANNELS 3 Zrotation Xrotation Yrotation
					JOINT Head
					{
						OFFSET 0.000000 10.146900 0.000000
						CHANNELS 3 Zrotation Xrotation Yrotation
						JOINT HeadTip
						{
							OFFSET 0.000000 10.000000 0.000000
							CHANNELS 3 Zrotation Xrotation Yrotation
							End Site
							{
							    OFFSET 0.000000 5.000000 0.000000
							}
						}
					}
				}
			}
		}
	}
}
MOTION
Frames:	11
Frame Time:	0.033332
-146.454200 66.933600 -34.083300 5.576481 23.435025 10.878822 -47.407931 -70.534159 -73.024295 0.000000 68.446740 -0.000000 -17.095545 0.817945 -24.328683 -0.000000 -4.287308 -0.000000 -0.000000 0.000000 0.000000 52.640354 -46.979574 81.866881 -0.000000 68.989925 -0.000000 -5.766266 14.470520 15.901578 -0.000000 -9.851621 -0.000000 -0.000000 -0.000000 -0.000000 7.578020 54.838833 10.178526 -0.000000 11.193607 -0.000000 -0.000000 0.000000 0.000000 -19.371328 0.000000 -2.386607 43.297904 -1.243761 -16.019108 -0.000000 -26.454219 -0.000000 16.252711 17.558394 -34.035488 -0.000000 0.000000 0.000000 -16.391261 0.000000 13.274056 -85.865017 -33.202494 -25.510010 -0.000080 -27.800542 -0.000020 -7.200699 3.332383 33.042384 -0.000000 0.000000 0.000000 -0.000000 0.000000 0.000000 -31.827199 -13.824498 19.949040 -0.000000 -0.000000 -0.000000 
-147.141500 69.240200 -32.744100 7.271802 21.048433 12.459409 -39.497166 -65.731743 -63.868058 -0.000000 64.979114 -0.000000 -16.648693 1.477383 -24.918454 -0.000000 -4.112160 -0.000000 -0.000000 -0.000000 0.000000 47.443687 -45.795911 77.435674 0.000000 67.310907 -0.000000 -4.263556 22.865404 19.681010 -0.000000 -7.408439 -0.000000 -0.000000 0.000000 -0.000000 4.692633 52.359558 12.029192 -0.000000 10.559426 0.000000 -0.000000 0.000000 -0.000000 -16.933280 0.000000 -2.886752 53.838145 -7.017409 -11.714657 -0.000000 -23.375190 0.000000 20.509632 15.223786 -41.007954 -0.000000 -0.000000 -0.000000 -12.954392 0.000000 12.232003 -77.239270 -32.349019 -23.450908 -0.000124 -39.298007 -0.000044 -13.231325 -0.722073 32.727023 -0.000000 0.000000 0.000000 -0.000000 0.000000 -0.000000 -27.127297 -16.980327 21.026324 0.000000 -0.000000 0.000000 
-147.865100 71.413700 -31.242400 7.984035 18.471792 15.806841 -34.878753 -59.566791 -59.542568 -0.000000 61.420714 0.000000 -16.419998 1.945211 -25.872537 -0.000000 -4.116447 0.000000 -0.000000 0.000000 -0.000000 42.525267 -46.083620 72.063818 -0.000000 69.088477 -0.000000 -1.647940 20.636683 20.136229 -0.000000 -7.477999 -0.000000 -0.000000 -0.000000 -0.000000 3.810656 49.512461 10.566082 -0.000000 9.442861 -0.000000 -0.000000 -0.000000 -0.000000 -15.530687 0.000000 -4.279924 63.940259 -11.746541 -2.330253 0.000000 -22.386880 -0.000000 24.979644 15.399748 -40.833955 0.000000 0.000000 -0.000000 -8.949424 0.000000 10.976319 -66.768481 -30.534689 -19.508210 -0.000163 -46.985093 -0.000071 -12.319941 0.661590 32.758213 0.000000 0.000000 -0.000000 -0.000000 -0.000000 -0.000000 -22.720475 -20.289831 24.284597 -0.000000 -0.000000 0.000000 
-148.591800 73.632900 -29.719800 7.439184 16.117055 19.322726 -30.497924 -53.498946 -57.578123 0.000000 57.101585 0.000000 -15.713664 3.322814 -26.167039 -0.000000 -4.528012 -0.000000 -0.000000 0.000000 -0.000000 37.979944 -46.664067 66.843613 -0.000000 71.262104 -0.000000 -1.225697 17.196525 15.154201 -0.000000 -9.852448 -0.000000 -0.000000 0.000000 -0.000000 3.201965 45.646041 7.308528 0.000000 8.808345 -0.000000 -0.000000 0.000000 -0.000000 -12.121079 0.000000 -4.374484 67.772576 -14.278778 8.578823 0.000000 -29.514965 -0.000000 28.064369 13.776293 -34.310341 -0.000000 0.000000 0.000000 -5.770128 0.000000 10.149084 -56.471866 -27.977386 -13.287983 -0.000178 -49.420855 -0.000082 -10.921083 2.120474 33.056798 0.000000 -0.000000 -0.000000 -0.000000 0.000000 -0.000000 -16.740964 -22.973839 29.531873 0.000000 -0.000000 -0.000000 
-149.231500 75.972000 -28.277100 5.607422 14.081373 21.977873 -25.784678 -48.342547 -57.156042 -0.000000 52.610328 -0.000000 -13.623027 6.577160 -24.335148 0.000000 -5.839954 -0.000000 -0.000000 0.000000 -0.000000 33.625069 -45.987648 62.819241 -0.000000 69.936193 0.000000 -2.245990 15.177039 7.776543 -0.000000 -11.323529 -0.000000 -0.000000 -0.000000 -0.000000 2.922896 41.186943 4.193255 -0.000000 8.518333 -0.000000 0.000000 0.000000 0.000000 -8.739034 0.000000 -3.777188 67.288396 -16.306609 13.649983 0.000000 -41.161464 0.000000 24.716426 10.451809 -21.530566 0.000000 -0.000000 -0.000000 -3.244539 0.000000 8.443697 -48.434727 -25.522532 -6.381524 -0.000171 -48.338379 -0.000077 -9.704606 4.569094 34.850998 -0.000000 -0.000000 -0.000000 0.000000 0.000000 0.000000 -9.811697 -24.422847 35.686207 -0.000000 -0.000000 -0.000000 
-149.589600 78.222600 -26.855300 3.437372 11.650389 23.202988 -22.149111 -44.341504 -57.216950 -0.000000 50.575803 -0.000000 -9.537020 12.630093 -20.578232 0.000000 -6.982137 0.000000 -0.000000 0.000000 0.000000 28.691883 -42.463604 59.220623 0.000000 63.294727 -0.000000 -4.272476 16.649905 1.054575 -0.000000 -11.734961 -0.000000 0.000000 -0.000000 -0.000000 3.035769 37.443882 2.127389 -0.000000 8.300592 -0.000000 -0.000000 0.000000 -0.000000 -7.417712 0.000000 -3.203322 66.197718 -19.070684 13.163793 -0.000000 -53.824921 -0.000000 18.643151 7.116504 -12.128052 -0.000000 -0.000000 -0.000000 -1.384326 -0.000000 6.411838 -43.781572 -22.137226 0.090909 -0.000159 -46.277294 -0.000068 -8.310881 6.997045 36.485922 0.000000 0.000000 -0.000000 -0.000000 0.000000 -0.000000 -3.754439 -24.518237 41.311579 -0.000000 0.000000 -0.000000 
-149.530400 79.960400 -25.390400 1.231621 8.465996 22.808998 -20.082204 -41.334564 -56.749811 0.000000 52.112131 -0.000000 -3.346045 19.339735 -15.716727 0.000000 -4.734544 0.000000 -0.000000 -0.000000 0.000000 23.969316 -35.717470 56.315087 0.000000 51.162584 0.000000 -5.983872 23.002085 -2.800285 -0.000000 -8.778473 -0.000000 -0.000000 0.000000 -0.000000 4.051109 34.569876 1.187518 -0.000000 8.179776 -0.000000 -0.000000 -0.000000 0.000000 -6.951577 -0.000000 -3.281003 63.231867 -21.506370 9.168705 0.000000 -67.062643 0.000000 14.940321 5.222567 -11.239600 0.000000 -0.000000 -0.000000 -1.016439 0.000000 4.364989 -41.285066 -18.041509 5.847759 -0.000148 -44.135974 -0.000060 -6.948553 8.769542 36.840098 -0.000000 -0.000000 -0.000000 -0.000000 -0.000000 0.000000 -0.337122 -23.329541 45.528242 -0.000000 -0.000000 -0.000000 
-149.266600 80.898400 -23.913000 -1.209509 5.402453 21.862079 -19.277516 -39.410278 -55.065320 0.000000 55.839547 -0.000000 -1.189917 20.337377 -11.085114 -0.000000 1.652168 -0.000000 -0.000000 0.000000 -0.000000 20.500654 -28.564383 53.981472 0.000000 38.950477 -0.000000 0.755775 12.543937 -1.664160 0.000000 -2.648806 -0.000000 -0.000000 -0.000000 -0.000000 6.103157 31.295816 -0.005796 -0.000000 8.304211 -0.000000 0.000000 0.000000 0.000000 -6.861528 -0.000000 -3.191700 58.978565 -23.164584 2.931971 -0.000000 -80.274711 0.000000 12.862318 5.172407 -17.388646 -0.000000 0.000000 0.000000 -1.610669 -0.000000 2.738153 -40.368581 -13.853673 11.013083 -0.000136 -41.816517 -0.000052 -5.620158 9.498920 36.624932 -0.000000 -0.000000 -0.000000 0.000000 0.000000 0.000000 0.884699 -21.296484 48.617011 0.000000 -0.000000 -0.000000 
-149.161900 81.508200 -22.690700 -2.140048 3.297466 21.003840 -20.246822 -37.829945 -50.429048 -0.000000 58.398854 -0.000000 -1.425651 15.859639 -15.945802 -0.000000 -0.258518 -0.000000 0.000000 -0.000000 -0.000000 20.401438 -27.352187 47.435086 -0.000000 38.147151 -0.000000 0.909954 13.058034 4.058132 0.000000 -3.210920 -0.000000 0.000000 -0.000000 -0.000000 5.926564 28.777853 -1.497084 0.000000 7.992073 -0.000000 -0.000000 0.000000 -0.000000 -6.697456 0.000000 -2.562978 55.128500 -24.580797 -3.505947 -180.000037 -88.295754 180.000037 10.482627 4.014409 -26.088705 -0.000000 0.000000 -0.000000 -0.457251 -0.000000 1.869400 -42.164332 -10.497232 15.001290 -0.000125 -39.509989 -0.000045 -3.636239 10.181029 36.575268 -0.000000 0.000000 0.000000 -0.000000 0.000000 -0.000000 2.922911 -19.422509 51.727562 -0.000000 0.000000 -0.000000 
-149.552600 82.109500 -21.371400 -2.353527 1.398635 21.310729 -20.943847 -34.869334 -43.389864 -0.000000 58.032004 -0.000000 -1.093843 12.200245 -15.746191 0.000000 -3.904259 -0.000000 0.000000 -0.000000 -0.000000 20.261502 -25.436126 44.018563 0.000000 37.037501 -0.000000 2.286166 13.936368 5.604314 -0.000000 -3.687897 -0.000000 -0.000000 -0.000000 -0.000000 5.028175 27.246605 -3.238156 0.000000 7.724273 0.000000 -0.000000 0.000000 0.000000 -5.804589 0.000000 -1.820241 50.595697 -25.522589 -10.606303 -180.000037 -80.135759 -180.000037 10.593366 0.543764 -31.123955 -0.000000 0.000000 0.000000 2.187019 -0.000000 0.829049 -44.890802 -7.871885 16.384155 -0.000115 -37.025244 -0.000038 -2.620341 11.097982 38.583279 -0.000000 -0.000000 -0.000000 -0.000000 0.000000 0.000000 5.555474 -18.762865 53.820500 -0.000000 -0.000000 -0.000000 
-149.912400 82.686500 -20.022200 -2.847904 -0.161490 21.809817 -20.665980 -30.214413 -36.772963 -0.000000 54.095260 0.000000 -0.322949 11.816581 -14.597170 0.000000 -5.244952 -0.000000 -0.000000 -0.000000 -0.000000 20.904609 -22.585969 43.972422 0.000000 35.025593 0.000000 2.680436 14.040969 3.896221 0.000000 -4.359333 -0.000000 0.000000 0.000000 -0.000000 5.280867 25.254172 -4.483076 0.000000 7.878059 -0.000000 -0.000000 0.000000 -0.000000 -5.623664 -0.000000 -1.254911 45.636664 -25.148062 -18.379825 -180.000037 -75.732684 -180.000037 13.050549 -2.793547 -31.940605 0.000000 0.000000 -0.000000 3.483720 0.000000 -0.469339 -46.029374 -5.158292 14.427738 -0.000104 -34.353967 -0.000032 -4.000529 12.607466 41.195125 -0.000000 0.000000 -0.000000 -0.000000 0.000000 -0.000000 5.912214 -18.190171 54.831705 -0.000000 -0.000000 -0.000000 
